# xmcd
#
# Track frame offsets: 
#        150
#        16458
#        38837
#        65300
#        76370
#        111227
#        125463
#        138583
#        166688
#        195911
#        218333
#
# Disc length: 3149 seconds
#
# Revision: 0
# Processed by: cddbd v1.5.2PL0 Copyright (c) Steve Scherf et al.
# Submitted via: ExactAudioCopy v0.99pb4
#
DISCID=880c4b0b
DTITLE=Papa Mali - Do Your Thing
DYEAR=2008
DGENRE=Blues
TTITLE0=Do Your Thing
TTITLE1=Honeybee
TTITLE2=Early In The Morning
TTITLE3=I Had The Dream
TTITLE4=Little Moses
TTITLE5=Coffee
TTITLE6=I'm Gettin' Over It
TTITLE7=Girls In Bossier City
TTITLE8=Sugarland
TTITLE9=True
TTITLE10=Religion
EXTD=
EXTT0=
EXTT1=
EXTT2=
EXTT3=
EXTT4=
EXTT5=
EXTT6=
EXTT7=
EXTT8=
EXTT9=
EXTT10=
PLAYORDER=
